<svg xmlns="http://www.w3.org/2000/svg" xmlns:xlink="http://www.w3.org/1999/xlink" width="500" zoomAndPan="magnify" viewBox="0 0 375 374.999991" height="500" preserveAspectRatio="xMidYMid meet" version="1.0"><defs><g/></defs><rect x="-37.5" width="450" fill="#ffffff" y="-37.499999" height="449.999989" fill-opacity="1"/><rect x="-37.5" width="450" fill="#003399" y="-37.499999" height="449.999989" fill-opacity="1"/><g fill="#ffffff" fill-opacity="0.5216"><g transform="translate(52.456242, 255.209572)"><g><path d="M 20.5 0 L 20.5 -193.859375 L 76.4375 -193.859375 L 76.4375 -51.78125 L 155.640625 -51.78125 L 155.640625 0 Z M 20.5 0 "/></g></g></g><g fill="#ffffff" fill-opacity="1"><g transform="translate(47.115808, 248.845091)"><g><path d="M 20.5 0 L 20.5 -193.859375 L 76.4375 -193.859375 L 76.4375 -51.78125 L 155.640625 -51.78125 L 155.640625 0 Z M 20.5 0 "/></g></g></g><g fill="#ffd700" fill-opacity="0.6118"><g transform="translate(95.689489, 320.757474)"><g><path d="M 111.078125 4.15625 C 90.953125 4.15625 73.269531 -0.0859375 58.03125 -8.578125 C 42.789062 -17.078125 30.878906 -28.941406 22.296875 -44.171875 C 13.710938 -59.410156 9.421875 -77.003906 9.421875 -96.953125 C 9.421875 -116.890625 13.664062 -134.476562 22.15625 -149.71875 C 30.65625 -164.957031 42.519531 -176.820312 57.75 -185.3125 C 72.988281 -193.8125 90.578125 -198.0625 110.515625 -198.0625 C 127.878906 -198.0625 143.578125 -194.734375 157.609375 -188.078125 C 171.648438 -181.429688 183.425781 -172.101562 192.9375 -160.09375 C 202.445312 -148.09375 208.863281 -133.878906 212.1875 -117.453125 L 155.671875 -117.453125 C 152.710938 -126.128906 147.351562 -133.097656 139.59375 -138.359375 C 131.84375 -143.617188 122.890625 -146.25 112.734375 -146.25 C 103.691406 -146.25 95.660156 -144.171875 88.640625 -140.015625 C 81.617188 -135.867188 76.125 -130.097656 72.15625 -122.703125 C 68.1875 -115.316406 66.203125 -106.734375 66.203125 -96.953125 C 66.203125 -87.347656 68.140625 -78.804688 72.015625 -71.328125 C 75.898438 -63.847656 81.300781 -58.03125 88.21875 -53.875 C 95.144531 -49.71875 103.132812 -47.640625 112.1875 -47.640625 C 122.707031 -47.640625 131.84375 -50.363281 139.59375 -55.8125 C 147.351562 -61.257812 152.988281 -68.507812 156.5 -77.5625 L 213.296875 -77.5625 C 210.523438 -61.125 204.425781 -46.765625 195 -34.484375 C 185.582031 -22.203125 173.71875 -12.691406 159.40625 -5.953125 C 145.101562 0.785156 128.992188 4.15625 111.078125 4.15625 Z M 111.078125 4.15625 "/></g></g></g><g fill="#ffd700" fill-opacity="1"><g transform="translate(83.447716, 308.515699)"><g><path d="M 111.078125 4.15625 C 90.953125 4.15625 73.269531 -0.0859375 58.03125 -8.578125 C 42.789062 -17.078125 30.878906 -28.941406 22.296875 -44.171875 C 13.710938 -59.410156 9.421875 -77.003906 9.421875 -96.953125 C 9.421875 -116.890625 13.664062 -134.476562 22.15625 -149.71875 C 30.65625 -164.957031 42.519531 -176.820312 57.75 -185.3125 C 72.988281 -193.8125 90.578125 -198.0625 110.515625 -198.0625 C 127.878906 -198.0625 143.578125 -194.734375 157.609375 -188.078125 C 171.648438 -181.429688 183.425781 -172.101562 192.9375 -160.09375 C 202.445312 -148.09375 208.863281 -133.878906 212.1875 -117.453125 L 155.671875 -117.453125 C 152.710938 -126.128906 147.351562 -133.097656 139.59375 -138.359375 C 131.84375 -143.617188 122.890625 -146.25 112.734375 -146.25 C 103.691406 -146.25 95.660156 -144.171875 88.640625 -140.015625 C 81.617188 -135.867188 76.125 -130.097656 72.15625 -122.703125 C 68.1875 -115.316406 66.203125 -106.734375 66.203125 -96.953125 C 66.203125 -87.347656 68.140625 -78.804688 72.015625 -71.328125 C 75.898438 -63.847656 81.300781 -58.03125 88.21875 -53.875 C 95.144531 -49.71875 103.132812 -47.640625 112.1875 -47.640625 C 122.707031 -47.640625 131.84375 -50.363281 139.59375 -55.8125 C 147.351562 -61.257812 152.988281 -68.507812 156.5 -77.5625 L 213.296875 -77.5625 C 210.523438 -61.125 204.425781 -46.765625 195 -34.484375 C 185.582031 -22.203125 173.71875 -12.691406 159.40625 -5.953125 C 145.101562 0.785156 128.992188 4.15625 111.078125 4.15625 Z M 111.078125 4.15625 "/></g></g></g></svg>